# xmcd
#
# Track frame offsets:
#	150
#	18631
#	32308
#	49207
#	67123
#	82273
#	98667
#	114278
#	132229
#	147364
#	161946
#	175993
#
# Disc length: 2568 seconds
#
# Revision: 4
# Processed by: cddbd v1.5.2PL0 Copyright (c) Steve Scherf et al.
# Submitted via: audiograbber 1.83.01
#
DISCID=a70a060c
DTITLE=Dolly Parton - Better Day
DYEAR=2011
DGENRE=Country
TTITLE0=In The Meantime
TTITLE1=Just Leaving
TTITLE2=Somebody's Missing You
TTITLE3=Together You And I
TTITLE4=Country Is As Country Does
TTITLE5=Holding Everything
TTITLE6=The Sacrifice
TTITLE7=I Just Might
TTITLE8=Better Day
TTITLE9=Shine Like The Sun
TTITLE10=Get Out And Stay Out
TTITLE11=Let Love Grow
EXTD=
EXTT0=
EXTT1=
EXTT2=
EXTT3=
EXTT4=
EXTT5=
EXTT6=
EXTT7=
EXTT8=
EXTT9=
EXTT10=
EXTT11=
PLAYORDER=
